#!OML:ASF E:\acrobat2\Project_11_07_03\Capture day 1\Session 1\Acrobat.ASF
:FULLY-SPECIFIED
:DEGREES
900
root 8.89816 6.19505 2.06178 95.8025 -4.24466 -75.0994
lowerback 9.50635 -5.2262 3.88709
upperback 2.39757 -6.56852 4.43073
thorax -2.70922 -3.3601 3.20346
lowerneck 0.592095 3.19967 -1.47343
upperneck -24.6377 6.99364 16.3862
head -8.33144 1.67793 5.39149
rclavicle 7.95139e-015 1.59028e-015
rhumerus 33.6071 26.951 -69.4395
rradius 100.719
rwrist -6.63578
rhand -27.244 -11.9858
rfingers 7.12502
rthumb -0.65579 -41.9645
lclavicle 7.95139e-015 1.59028e-015
lhumerus 11.8052 -5.13029 108.981
lradius 104.218
lwrist 23.7271
lhand -20.0794 -10.8728
lfingers 7.12502
lthumb 6.26319 19.0146
rfemur -44.3285 18.9493 5.6584
rtibia 56.1883
rfoot 363.681 -22.4459
rtoes 44.9806
lfemur -21.7487 4.69792 -30.4859
ltibia 9.45992
lfoot 14.8609 -2.50501
ltoes 6.52644
901
root 8.89688 6.19334 2.06531 95.8212 -4.23683 -75.049
lowerback 9.45933 -5.21553 3.92982
upperback 2.38 -6.55297 4.44919
thorax -2.70452 -3.35296 3.19368
lowerneck 0.216669 3.2122 -1.62758
upperneck -24.2614 6.99735 16.6598
head -8.14459 1.71082 5.50436
rclavicle -9.0447e-014 7.79236e-014
rhumerus 36.2969 28.9194 -68.3464
rradius 100.043
rwrist -6.25181
rhand -28.5623 -12.3788
rfingers 7.12502
rthumb -1.92896 -42.3498
lclavicle -9.0447e-014 7.79236e-014
lhumerus 11.7671 -5.10774 109.098
lradius 104.173
lwrist 23.7399
lhand -20.1905 -10.761
lfingers 7.12502
lthumb 6.15586 19.1296
rfemur -44.3011 18.9114 5.65317
rtibia 56.1685
rfoot 363.697 -22.3153
rtoes 44.725
lfemur -21.857 4.88748 -30.5519
ltibia 9.60427
lfoot 15.2508 -2.73393
ltoes 7.554
902
root 8.89602 6.19236 2.06865 95.831 -4.24315 -74.9983
lowerback 9.4305 -5.1848 3.95109
upperback 2.37273 -6.51198 4.47142
thorax -2.69687 -3.33306 3.19768
lowerneck 0.112941 3.16959 -1.54492
upperneck -24.1846 6.90761 16.5734
head -8.08377 1.67707 5.46266
rclavicle 6.83819e-014 0
rhumerus 39.1444 30.8112 -67.0214
rradius 99.2559
rwrist -5.63328
rhand -29.7082 -12.9781
rfingers 7.12502
rthumb -3.0357 -42.9362
lclavicle 6.83819e-014 0
lhumerus 11.7396 -5.15027 109.247
lradius 104.116
lwrist 23.749
lhand -20.2809 -10.6854
lfingers 7.12502
lthumb 6.06863 19.2077
rfemur -44.2778 18.8734 5.63934
rtibia 56.1645
rfoot 363.775 -22.2011
rtoes 44.4596
lfemur -21.9282 5.01802 -30.6206
ltibia 9.70117
lfoot 15.6006 -2.83801
ltoes 8.6366
903
root 8.89526 6.19183 2.07195 95.8288 -4.26125 -74.9318
lowerback 9.42395 -5.1418 3.9589
upperback 2.37269 -6.4546 4.49527
thorax -2.69267 -3.30489 3.21062
lowerneck 0.0555702 3.1173 -1.46807
upperneck -24.1754 6.8127 16.488
head -8.05469 1.63409 5.42538
rclavicle 2.26615e-014 -6.04305e-014
rhumerus 42.151 32.5969 -65.4634
rradius 98.358
rwrist -4.86718
rhand -30.5643 -13.6631
rfingers 7.12502
rthumb -3.86239 -43.6078
lclavicle 2.26615e-014 -6.04305e-014
lhumerus 11.7185 -5.25022 109.426
lradius 104.041
lwrist 23.7458
lhand -20.379 -10.6909
lfingers 7.12502
lthumb 5.97392 19.2049
rfemur -44.24 18.8151 5.62283
rtibia 56.1458
rfoot 363.929 -22.1135
rtoes 44.1978
lfemur -21.9504 5.06644 -30.6863
ltibia 9.73614
lfoot 15.8972 -2.83866
ltoes 9.74224
904
root 8.89422 6.19165 2.07524 95.8151 -4.28336 -74.8463
lowerback 9.44047 -5.09165 3.96297
upperback 2.37726 -6.38658 4.52228
thorax -2.69586 -3.27145 3.22976
lowerneck 0.14616 3.05186 -1.38136
upperneck -24.347 6.71685 16.3598
head -8.11378 1.57437 5.37773
rclavicle -3.02153e-014 1.90833e-014
rhumerus 45.3413 34.2555 -63.6476
rradius 97.3318
rwrist -4.06647
rhand -31.1004 -14.3262
rfingers 7.12502
rthumb -4.38006 -44.2609
lclavicle -3.02153e-014 1.90833e-014
lhumerus 11.702 -5.39043 109.631
lradius 103.95
lwrist 23.735
lhand -20.5272 -10.7648
lfingers 7.12502
lthumb 5.83084 19.135
rfemur -44.1867 18.7369 5.61243
rtibia 56.1143
rfoot 364.12 -22.0549
rtoes 43.9578
lfemur -21.9167 4.99764 -30.7321
ltibia 9.69631
lfoot 16.112 -2.74777
ltoes 10.8483
905
root 8.89279 6.19187 2.07847 95.7963 -4.29533 -74.7438
lowerback 9.47851 -5.03984 3.97516
upperback 2.37881 -6.31389 4.55472
thorax -2.71444 -3.23584 3.25199
lowerneck 0.296841 2.99029 -1.32993
upperneck -24.5823 6.6424 16.2716
head -8.21088 1.51764 5.35171
rclavicle 4.37326e-015 -1.59028e-015
rhumerus 48.726 35.7808 -61.5614
rradius 96.1776
rwrist -3.3316
rhand -31.3714 -14.8669
rfingers 7.12502
rthumb -4.64176 -44.796
lclavicle 4.37326e-015 -1.59028e-015
lhumerus 11.6823 -5.54448 109.852
lradius 103.852
lwrist 23.7139
lhand -20.6922 -10.8432
lfingers 7.12502
lthumb 5.67152 19.0609
rfemur -44.1321 18.6543 5.62021
rtibia 56.0985
rfoot 364.298 -22.0054
rtoes 43.7708
lfemur -21.8664 4.94607 -30.7674
ltibia 9.63561
lfoot 16.3273 -2.68713
ltoes 11.732
906
root 8.89094 6.19229 2.08159 95.7796 -4.29947 -74.6285
lowerback 9.53294 -4.99204 3.99366
upperback 2.37552 -6.24454 4.5936
thorax -2.74695 -3.20209 3.27987
lowerneck 0.318662 2.95303 -1.39768
upperneck -24.6717 6.60985 16.3584
head -8.24653 1.49176 5.40172
rclavicle 5.56597e-015 -2.22639e-014
rhumerus 52.317 37.177 -59.1845
rradius 94.917
rwrist -2.7162
rhand -31.526 -15.3059
rfingers 7.12502
rthumb -4.79107 -45.2317
lclavicle 5.56597e-015 -2.22639e-014
lhumerus 11.6662 -5.68798 110.082
lradius 103.751
lwrist 23.6806
lhand -20.8053 -10.9011
lfingers 7.12502
lthumb 5.56233 19.0059
rfemur -44.0884 18.5727 5.63772
rtibia 56.1196
rfoot 364.398 -21.9473
rtoes 43.6726
lfemur -21.8151 4.90496 -30.7941
ltibia 9.56847
lfoot 16.5249 -2.65884
ltoes 12.4605
907
root 8.88851 6.19282 2.08455 95.7714 -4.28787 -74.5063
lowerback 9.59283 -4.94468 4.03437
upperback 2.36741 -6.17302 4.63564
thorax -2.78952 -3.16749 3.29945
lowerneck 0.260333 2.9217 -1.47237
upperneck -24.6539 6.57737 16.4769
head -8.23123 1.47459 5.46015
rclavicle 1.86858e-014 -6.36111e-015
rhumerus 56.0999 38.4116 -56.519
rradius 93.5771
rwrist -2.24543
rhand -31.6499 -15.808
rfingers 7.12502
rthumb -4.91065 -45.7311
lclavicle 1.86858e-014 -6.36111e-015
lhumerus 11.6546 -5.83052 110.314
lradius 103.646
lwrist 23.6323
lhand -20.8858 -10.8933
lfingers 7.12502
lthumb 5.48461 19.0157
rfemur -44.064 18.4993 5.67041
rtibia 56.1825
rfoot 364.377 -21.8854
rtoes 43.6525
lfemur -21.7706 4.88756 -30.8055
ltibia 9.49691
lfoot 16.7187 -2.661
ltoes 12.9473
908
root 8.88543 6.19324 2.08726 95.7734 -4.24237 -74.381
lowerback 9.64979 -4.89613 4.12315
upperback 2.35265 -6.09529 4.68283
thorax -2.84186 -3.13027 3.29747
lowerneck 0.266825 2.8757 -1.42681
upperneck -24.6667 6.50756 16.4417
head -8.22707 1.43786 5.445
rclavicle 2.54444e-014 -4.92986e-014
rhumerus 59.9892 39.4322 -53.6545
rradius 92.2115
rwrist -1.97602
rhand -32.3883 -16.9731
rfingers 7.12502
rthumb -5.62369 -46.8785
lclavicle 2.54444e-014 -4.92986e-014
lhumerus 11.6407 -5.98283 110.55
lradius 103.533
lwrist 23.5516
lhand -20.9819 -10.7519
lfingers 7.12502
lthumb 5.39182 19.1595
rfemur -44.0581 18.4359 5.73949
rtibia 56.2757
rfoot 364.27 -21.8211
rtoes 43.6411
lfemur -21.7549 4.88473 -30.7786
ltibia 9.46157
lfoot 16.9059 -2.68509
ltoes 13.1974
909
root 8.88196 6.19322 2.08971 95.7789 -4.16795 -74.2521
lowerback 9.70523 -4.84243 4.25718
upperback 2.33998 -6.00668 4.73441
thorax -2.89536 -3.08813 3.27357
lowerneck 0.265834 2.82572 -1.37243
upperneck -24.6584 6.42959 16.4031
head -8.21312 1.39842 5.4267
rclavicle 3.53837e-014 1.59028e-014
rhumerus 63.7379 40.1408 -50.8858
rradius 90.8918
rwrist -1.84803
rhand -33.6029 -18.8186
rfingers 7.12502
rthumb -6.79623 -48.6895
lclavicle 3.53837e-014 1.59028e-014
lhumerus 11.6335 -6.17073 110.793
lradius 103.407
lwrist 23.4254
lhand -21.1198 -10.4735
lfingers 7.12502
lthumb 5.25868 19.4412
rfemur -44.0584 18.3698 5.84372
rtibia 56.3827
rfoot 364.124 -21.7541
rtoes 43.5981
lfemur -21.7488 4.89343 -30.7197
ltibia 9.43829
lfoot 17.1129 -2.69759
ltoes 13.3485
910
root 8.87829 6.19277 2.09175 95.7823 -4.08591 -74.1159
lowerback 9.76409 -4.78894 4.41
upperback 2.33404 -5.91659 4.78746
thorax -2.94517 -3.04554 3.24048
lowerneck 0.495465 2.75276 -1.18675
upperneck -24.8965 6.32212 16.1583
head -8.31566 1.32492 5.3225
rclavicle 5.88403e-014 2.8625e-014
rhumerus 67.0126 40.5401 -48.5696
rradius 89.7594
rwrist -1.85616
rhand -35.1314 -21.3024
rfingers 7.12502
rthumb -8.27158 -51.1205
lclavicle 5.88403e-014 2.8625e-014
lhumerus 11.6414 -6.39278 111.034
lradius 103.27
lwrist 23.2546
lhand -21.3119 -10.1179
lfingers 7.12502
lthumb 5.07317 19.8014
rfemur -44.0529 18.2851 5.96207
rtibia 56.4842
rfoot 363.975 -21.6954
rtoes 43.5098
lfemur -21.7389 4.9168 -30.6558
ltibia 9.40834
lfoot 17.3606 -2.71245
ltoes 13.3765
911
root 8.87446 6.19206 2.09334 95.7845 -4.02529 -73.9741
lowerback 9.831 -4.72934 4.55022
upperback 2.3258 -5.81815 4.82685
thorax -3.00195 -2.99835 3.19974
lowerneck 0.657004 2.68943 -1.10183
upperneck -25.0479 6.24766 16.1007
head -8.38735 1.26757 5.29833
rclavicle -2.46493e-014 -5.725e-014
rhumerus 69.4419 40.6868 -47.046
rradius 88.9475
rwrist -1.97598
rhand -36.6028 -23.9969
rfingers 7.12502
rthumb -9.69143 -53.754
lclavicle -2.46493e-014 -5.725e-014
lhumerus 11.6357 -6.66943 111.273
lradius 103.126
lwrist 23.0619
lhand -21.5249 -9.79107
lfingers 7.12502
lthumb 4.86757 20.133
rfemur -44.0385 18.1712 6.0618
rtibia 56.565
rfoot 363.838 -21.6528
rtoes 43.335
lfemur -21.7234 4.94786 -30.6213
ltibia 9.3632
lfoot 17.6438 -2.77174
ltoes 13.2262
912
root 8.8704 6.19126 2.09456 95.7869 -3.99818 -73.8325
lowerback 9.90674 -4.65388 4.65667
upperback 2.30753 -5.69977 4.85486
thorax -3.07213 -2.94068 3.16427
lowerneck 0.770369 2.63033 -1.14324
upperneck -25.1186 6.20436 16.2583
head -8.43457 1.22362 5.3691
rclavicle -5.96354e-014 1.7175e-013
rhumerus 70.8484 40.6594 -46.3919
rradius 88.5353
rwrist -2.2231
rhand -37.65 -26.2025
rfingers 7.12502
rthumb -10.7017 -55.91
lclavicle -5.96354e-014 1.7175e-013
lhumerus 11.5946 -7.00524 111.531
lradius 102.983
lwrist 22.8935
lhand -21.6984 -9.61489
lfingers 7.12502
lthumb 4.69997 20.313
rfemur -44.0203 18.034 6.12878
rtibia 56.6361
rfoot 363.716 -21.6373
rtoes 43.1372
lfemur -21.704 4.9989 -30.6328
ltibia 9.30173
lfoot 17.9654 -2.89021
ltoes 12.9702
